<!-- icon666.com - MILLIONS OF FREE VECTOR ICONS --><svg version="1.1" id="Capa_1" xmlns="http://www.w3.org/2000/svg" xmlns:xlink="http://www.w3.org/1999/xlink" x="0px" y="0px" viewBox="0 0 512 512" style="enable-background:new 0 0 512 512;" xml:space="preserve"><g><g><g><path d="M478.281,199.078l-22.861,0.107c-14.297,0-20.722-11.803-22.826-16.88c-4.553-11.014-3.346-23.092,2.955-29.375 l13.685-13.694c7.659-7.632,10.792-18.876,8.608-30.84c-1.81-9.922-7.144-19.729-15.025-27.609L429.31,67.27 c-10.508-10.517-23.882-16.791-35.783-16.791c-7.978,0-15.247,2.84-20.58,8.112l-15.983,16.134 c-4.455,4.491-9.94,6.771-16.303,6.771c-15.158,0-30.6-12.797-30.6-25.364v-19.4C310.06,16.134,289.897,0,264.169,0h-19.098 c-26.118,0-45.891,14.421-45.962,33.706l0.115,22.737c0.027,6.31-2.228,11.786-6.692,16.276 c-5.76,5.786-14.821,9.381-23.633,9.381c-6.638,0-12.309-2.006-15.957-5.662l-13.72-13.694 c-5.973-5.973-14.297-9.274-23.429-9.274c-12.265,0-25.018,5.733-35.02,15.726l-13.481,13.49 c-18.468,18.459-22.249,42.643-8.688,56.363L74.73,155.05c10.179,10.108,6.425,22.994,4.34,28.071 c-4.482,10.88-14.129,18.779-22.923,18.779H36.781c-20.625,0-36.768,20.163-36.768,45.9v19.125 c0,26.118,14.421,45.891,33.724,45.971l22.835-0.107c14.306,0,20.74,11.803,22.844,16.871c4.562,11.031,3.355,23.11-2.946,29.402 l-13.703,13.711c-7.659,7.65-10.792,18.877-8.6,30.84c1.81,9.913,7.144,19.72,15.034,27.609l13.498,13.498 c10.508,10.517,23.891,16.809,35.792,16.8c7.978,0,15.238-2.831,20.58-8.103l15.957-16.134c4.464-4.5,9.949-6.78,16.321-6.78 c15.158,0,30.6,12.788,30.6,25.337v19.418c0,20.607,20.163,36.741,45.891,36.741h19.09c26.118,0,45.882-14.421,45.962-33.724 l-0.124-22.71c-0.027-6.31,2.228-11.794,6.7-16.285c5.76-5.786,14.812-9.381,23.616-9.381c6.647,0,12.318,2.015,15.983,5.68 l13.729,13.711c5.964,5.964,14.271,9.239,23.376,9.239c12.274,0,25.044-5.733,35.037-15.735l13.498-13.498 c18.459-18.468,22.24-42.643,8.688-56.346L437.27,356.95c-10.197-10.117-6.425-23.039-4.34-28.115 c4.562-11.049,13.969-18.761,22.906-18.761h19.382c20.625,0,36.768-20.172,36.768-45.9v-19.107 C511.987,218.948,497.565,199.175,478.281,199.078z M479.248,264.191c0,7.783-3.337,12.576-4.02,13.135h-19.382 c-22.196,0-43.575,15.69-53.195,39.049c-9.452,22.941-5.023,47.409,11.555,63.862l14.421,14.297 c-0.444,2.228-2.307,6.825-7.073,11.608l-13.498,13.49c-4.233,4.242-9.017,6.141-12.096,6.496l-13.711-13.711 c-9.833-9.851-23.749-15.273-39.146-15.273c-17.457,0-34.966,7.109-46.832,19.027c-10.694,10.738-16.312,24.414-16.241,39.563 l0.107,20.314c-1.89,1.251-6.452,3.186-13.206,3.186h-19.09c-7.783,0-12.576-3.319-13.126-3.967V455.85 c0-30.955-29.606-58.112-63.365-58.112c-15.211,0-28.896,5.698-39.599,16.48l-14.262,14.421 c-2.512-0.47-7.073-2.547-11.626-7.091L92.364,408.05c-5.502-5.493-6.541-11.218-6.452-12.087l13.711-13.72 c15.664-15.655,19.702-41.809,10.055-65.105c-9.487-22.888-29.837-37.114-53.39-37.114l-20.314,0.098 c-1.26-1.899-3.195-6.452-3.195-13.206v-19.125c0-7.783,3.337-12.567,4.002-13.126h19.374c22.213,0,43.601-15.699,53.222-39.066 c9.434-22.932,4.996-47.382-11.573-63.809l-14.43-14.315c0.444-2.228,2.299-6.825,7.091-11.617l13.481-13.49 c4.233-4.233,8.999-6.132,12.114-6.452l13.72,13.703c9.833,9.833,23.731,15.247,39.12,15.247c17.465,0,34.984-7.109,46.85-19.027 c10.685-10.738,16.303-24.414,16.232-39.555l-0.098-20.332c1.89-1.26,6.443-3.186,13.197-3.186h19.098 c7.774,0,12.567,3.319,13.126,3.967v19.409c0,30.964,29.606,58.129,63.365,58.129c15.211,0,28.896-5.698,39.581-16.48 l14.288-14.421c2.503,0.47,7.073,2.538,11.608,7.082l13.507,13.516c5.511,5.502,6.541,11.227,6.443,12.105l-13.694,13.703 c-15.655,15.628-19.702,41.782-10.064,65.078c9.478,22.897,29.828,37.123,53.39,37.123l20.323-0.098 c1.26,1.89,3.195,6.452,3.195,13.206V264.191z"></path><path d="M256.013,140.416c-63.72,0-115.558,51.855-115.558,115.602c0,63.72,51.828,115.567,115.558,115.567 c20.909,0,41.409-5.644,59.256-16.329c7.757-4.65,10.286-14.705,5.644-22.471c-4.641-7.765-14.714-10.295-22.471-5.653 c-12.762,7.641-27.45,11.679-42.439,11.679c-45.652,0-82.801-37.15-82.801-82.801c0-45.669,37.141-82.828,82.801-82.828 s82.819,37.158,82.819,82.828c0,12.842-2.866,25.151-8.52,36.608c-4.002,8.112-0.674,17.945,7.437,21.947 c8.12,4.02,17.945,0.674,21.947-7.446c7.898-16.001,11.901-33.2,11.901-51.101C371.589,192.271,319.751,140.416,256.013,140.416z "></path></g></g></g></svg>